<svg width="1440" height="472" viewBox="0 0 1440 472" fill="none" xmlns="http://www.w3.org/2000/svg">
<path d="M603.336 105.278C769.299 72.1464 914.038 -37.3093 1095.26 14.6134C1276.65 67.0657 1494.87 281.242 1659.47 495.069C1824.42 709.242 1935.57 923.248 2047.3 1135.99C2158.84 1348.92 2270.59 1560.95 2222.82 1662.68C2174.7 1764.07 1967.07 1755.16 1832.95 1789.65C1699.02 1823.96 1638.45 1901.14 1536.07 1928.8C1433.53 1955.92 1289 1933.72 1145.36 1852.52C1001.88 1771.85 858.56 1632.21 726.861 1491.33C594.978 1350.63 474.367 1208.34 315.671 1023.2C157.137 838.586 -39.2969 610.929 -87.8339 441.539C-136.371 272.15 -36.8267 160.845 106.517 127.501C250.045 93.9745 437.211 137.88 603.336 105.278Z" fill="url(#paint0_linear_262_514)"/>
<defs>
<linearGradient id="paint0_linear_262_514" x1="475.51" y1="932.14" x2="1997.07" y2="313.306" gradientUnits="userSpaceOnUse">
<stop stop-color="#3F0410"/>
<stop offset="1" stop-color="#AB885B"/>
<stop offset="1" stop-color="#AB885B"/>
</linearGradient>
</defs>
</svg>
