<svg width="1440" height="1142" viewBox="0 0 1440 1142" fill="none" xmlns="http://www.w3.org/2000/svg">
<path fill-rule="evenodd" clip-rule="evenodd" d="M34.4002 27.1898L0.000218002 15.7167V248.323H0.00033034V844.4H1.48269e-05L0 1014L34.4 1031.12L35.7406 1031.78C70.5649 1048.95 138.478 1082.45 206.08 1092.08C243.741 1097.52 281.258 1095.64 318.789 1093.76H318.79H318.793C349.663 1092.22 380.543 1090.67 411.52 1093.2C450.991 1096.43 490.567 1106.3 530.128 1116.17L530.13 1116.17C559.205 1123.42 588.271 1130.67 617.28 1135.28C685.92 1146.32 754.08 1142.48 822.72 1119.6C849.492 1110.66 876.313 1098.75 903.145 1086.84L903.147 1086.84C944.947 1068.29 986.773 1049.73 1028.48 1042.32C1083.71 1032.41 1138.64 1041.87 1193.75 1051.36C1207.12 1053.66 1220.51 1055.97 1233.92 1058C1302.4 1068.4 1371.2 1071.6 1405.6 1073.2L1440 1074.8L1440 944L1440 844.4V248.323L1440 200L1440 0L1405.6 10.6873C1371.2 21.5318 1302.4 42.9065 1233.92 41.3348C1202.59 40.6175 1171.37 35.1205 1140.15 29.6251C1102.96 23.0796 1065.79 16.5363 1028.48 18.0742C995.003 19.4571 961.45 27.4507 927.894 35.4447C892.81 43.8031 857.723 52.1618 822.72 52.9652C791.528 53.6794 760.434 48.4215 729.35 43.1652C692.032 36.8548 654.728 30.5467 617.28 34.5767C579.298 38.6738 541.217 53.3595 503.147 68.041C472.579 79.8295 442.018 91.6153 411.52 97.9148C342.88 112.06 274.72 98.5435 206.08 80.155C137.6 61.7665 68.8002 38.8201 34.4002 27.1898Z" fill="url(#paint0_linear_262_687)"/>
<defs>
<linearGradient id="paint0_linear_262_687" x1="355.5" y1="367" x2="3287" y2="2716.5" gradientUnits="userSpaceOnUse">
<stop stop-color="#BFA169"/>
<stop offset="1" stop-color="#73091D"/>
</linearGradient>
</defs>
</svg>
