<svg width="721" height="1283" viewBox="0 0 721 1283" fill="none" xmlns="http://www.w3.org/2000/svg">
<g clip-path="url(#clip0_262_509)">
<path d="M116.823 306.361C196.491 352.428 302.786 375.603 349.519 444.498C396.072 513.557 383.038 628.52 349.319 726.269C315.576 824.201 260.993 904.899 207.211 985.514C153.273 1066.11 99.8243 1146.58 34.7591 1152.78C-30.2824 1158.79 -106.941 1090.53 -174.847 1054.93C-242.598 1019.35 -301.419 1016.27 -353.863 989.379C-406.129 962.322 -452.174 911.431 -470.916 848.371C-489.837 785.475 -481.743 710.188 -468.566 638.353C-455.544 566.498 -437.415 497.911 -414.507 408.105C-391.778 318.462 -364.114 207.618 -305.575 156.354C-247.036 105.09 -157.468 113.426 -86.4973 152.217C-15.3717 191.028 37.3342 260.131 116.823 306.361Z" fill="url(#paint0_linear_262_509)"/>
</g>
<defs>
<linearGradient id="paint0_linear_262_509" x1="-310.747" y1="439.989" x2="360.24" y2="1027.97" gradientUnits="userSpaceOnUse">
<stop stop-color="#3E030F"/>
<stop offset="1" stop-color="#BFA169"/>
</linearGradient>
<clipPath id="clip0_262_509">
<rect width="1409.59" height="1110.59" fill="white" transform="translate(-677.206 0.87793) rotate(7.32147)"/>
</clipPath>
</defs>
</svg>
