<svg width="955" height="2105" viewBox="0 0 955 2105" fill="none" xmlns="http://www.w3.org/2000/svg">
<g clip-path="url(#clip0_262_503)">
<path d="M-467.082 1202.72C-436.88 1279.82 -300.293 1318.83 -189.518 1355.77C-78.7426 1392.71 6.15039 1427.31 98.6548 1421.06C191.159 1414.8 291.275 1367.69 321.625 1292.91C352.241 1218.05 312.895 1115.86 286.878 1006.95C260.763 898.218 247.977 782.769 177.034 706.462C106.259 630.254 -22.601 593.455 -119.193 631.346C-215.713 669.503 -280.232 782.422 -350.582 896.476C-420.933 1010.53 -497.284 1125.62 -467.082 1202.72Z" fill="url(#paint0_linear_262_503)"/>
</g>
<defs>
<linearGradient id="paint0_linear_262_503" x1="30.4665" y1="753.649" x2="152.916" y2="1534.12" gradientUnits="userSpaceOnUse">
<stop stop-color="#3E030F"/>
<stop offset="1" stop-color="#BFA169"/>
</linearGradient>
<clipPath id="clip0_262_503">
<rect width="1754.79" height="1169.38" fill="white" transform="matrix(-0.5 0.866025 0.866025 0.5 -58.6025 0.34375)"/>
</clipPath>
</defs>
</svg>
