<svg width="719" height="1516" viewBox="0 0 719 1516" fill="none" xmlns="http://www.w3.org/2000/svg">
<g clip-path="url(#clip0_262_536)">
<path d="M472.012 1007.06C416.127 947.733 431.528 840.48 461.251 758.143C490.919 675.958 534.854 618.842 564.781 560.961C594.707 503.081 610.812 444.504 646.417 383.693C681.968 323.035 737.074 259.993 808.494 251.261C879.859 242.681 967.462 288.042 1051.62 326.663C1135.96 365.35 1216.96 396.995 1286.76 447.435C1356.43 497.656 1414.91 566.673 1457.57 647.495C1500.24 728.317 1526.84 821.029 1493.29 887.216C1459.49 953.487 1365.67 993.451 1289.23 1057.38C1212.86 1121.16 1153.88 1208.9 1072.22 1218.06C990.749 1227.28 886.604 1157.92 770.891 1117.7C655.178 1077.47 527.952 1066.23 472.012 1007.06Z" fill="url(#paint0_linear_262_536)"/>
</g>
<defs>
<linearGradient id="paint0_linear_262_536" x1="1278.22" y1="1010.79" x2="849.49" y2="163.47" gradientUnits="userSpaceOnUse">
<stop stop-color="#3E030F"/>
<stop offset="1" stop-color="#BFA169"/>
</linearGradient>
<clipPath id="clip0_262_536">
<rect width="1778.18" height="969.048" fill="white" transform="translate(1673.02 1515.25) rotate(-160.151)"/>
</clipPath>
</defs>
</svg>
