<svg width="801" height="1568" viewBox="0 0 801 1568" fill="none" xmlns="http://www.w3.org/2000/svg">
<g clip-path="url(#clip0_262_515)">
<path d="M1368.41 599.513C1400.76 661.198 1362.42 761.318 1318.1 836.426C1273.86 911.395 1223.73 961.213 1185.06 1013.13C1146.4 1065.04 1119.06 1118.97 1074.97 1173.1C1030.97 1227.1 970.134 1281.44 908.661 1282.71C847.271 1283.85 785.218 1232.29 724.428 1187.46C663.5 1142.54 603.672 1104.62 557.629 1049.99C511.643 995.575 479.443 924.451 463.204 843.689C446.965 762.927 446.909 672.471 490.57 613.042C534.451 553.557 621.993 524.878 700.774 471.787C779.473 418.835 849.411 341.47 919.497 340.79C989.445 340.029 1059.54 415.953 1146.19 465.402C1232.85 514.852 1335.97 537.965 1368.41 599.513Z" fill="url(#paint0_linear_262_515)"/>
</g>
<defs>
<linearGradient id="paint0_linear_262_515" x1="698.842" y1="517.014" x2="1011.97" y2="1298.45" gradientUnits="userSpaceOnUse">
<stop stop-color="#3E030F"/>
<stop offset="1" stop-color="#BFA169"/>
</linearGradient>
<clipPath id="clip0_262_515">
<rect width="1448.11" height="965.405" fill="white" transform="translate(490.612 0.343506) rotate(30.5436)"/>
</clipPath>
</defs>
</svg>
