<svg width="866" height="858" viewBox="0 0 866 858" fill="none" xmlns="http://www.w3.org/2000/svg">
<g clip-path="url(#clip0_262_521)">
<path d="M478.727 532.776C422.828 487.743 343.862 458.601 315.867 398.347C288.029 337.979 311.2 246.354 348.284 170.666C385.407 94.8314 436.559 34.9662 487.087 -24.9098C537.732 -84.7544 587.987 -144.547 638.657 -143.18C689.288 -141.666 740.335 -78.993 788.401 -43.5726C836.35 -8.18355 881.163 0.0672402 918.354 26.9382C955.388 53.9238 984.917 99.561 992.088 152.356C999.415 205.037 984.58 265.084 966.236 321.844C948.009 378.635 926.236 432.284 898.363 502.613C870.645 572.828 836.712 659.691 785.892 695.383C735.073 731.075 667.252 715.563 617.198 677.262C567.028 638.93 534.47 577.923 478.727 532.776Z" fill="url(#paint0_linear_262_521)"/>
</g>
<defs>
<linearGradient id="paint0_linear_262_521" x1="822.34" y1="466.682" x2="348.233" y2="-50.1655" gradientUnits="userSpaceOnUse">
<stop stop-color="#3E030F"/>
<stop offset="1" stop-color="#BFA169"/>
</linearGradient>
<clipPath id="clip0_262_521">
<rect width="1090.12" height="907.207" fill="white" transform="translate(1053.45 857.435) rotate(-165)"/>
</clipPath>
</defs>
</svg>
