<svg width="719" height="1488" viewBox="0 0 719 1488" fill="none" xmlns="http://www.w3.org/2000/svg">
<g clip-path="url(#clip0_262_524)">
<path d="M-321.067 1070.73C-392.829 1012.91 -494.203 975.503 -530.142 898.151C-565.881 820.652 -536.134 703.025 -488.527 605.859C-440.869 508.505 -375.202 431.652 -310.335 354.785C-245.319 277.958 -180.803 201.197 -115.754 202.953C-50.7548 204.895 14.7774 285.354 76.4837 330.826C138.04 376.257 195.57 386.849 243.314 421.346C290.858 455.989 328.766 514.577 337.972 582.354C347.378 649.984 328.333 727.072 304.784 799.938C281.385 872.845 253.432 941.718 217.649 1032C182.067 1122.14 138.504 1233.66 73.2633 1279.48C8.02299 1325.3 -79.0446 1305.38 -143.302 1256.21C-207.709 1207 -249.506 1128.69 -321.067 1070.73Z" fill="url(#paint0_linear_262_524)"/>
</g>
<defs>
<linearGradient id="paint0_linear_262_524" x1="120.054" y1="985.877" x2="-488.593" y2="322.362" gradientUnits="userSpaceOnUse">
<stop stop-color="#3E030F"/>
<stop offset="1" stop-color="#BFA169"/>
</linearGradient>
<clipPath id="clip0_262_524">
<rect width="1399.47" height="1164.65" fill="white" transform="translate(416.746 1487.52) rotate(-165)"/>
</clipPath>
</defs>
</svg>
